<?xml version='1.0' encoding='iso-8859-1'?>
<!DOCTYPE svg PUBLIC '-//W3C//DTD SVG 1.1//EN' 'http://www.w3.org/Graphics/SVG/1.1/DTD/svg11.dtd'>
<svg version="1.1" xmlns="http://www.w3.org/2000/svg" viewBox="0 0 297 297" xmlns:xlink="http://www.w3.org/1999/xlink" enable-background="new 0 0 297 297"  fill="#bd373f">
  <g>
    <g>
      <path d="m241.466,111.2c-14.548-20.749-22.489-46.438-25.274-56.718-17.582,6.095-30.087,20.734-36.269,29.445 28.459,33.267 49.002,41.687 49.884,42.036 1.178,0.468 2.404,0.693 3.618,0.693 2.941-0.001 5.805-1.324 7.708-3.734 2.688-3.405 2.824-8.17 0.333-11.722z"/>
    </g>
    <g>
      <path d="m62.989,38.232c0.115,0.023 11.388,2.352 22.574,8.768 12.814,7.349 20.61,17.139 22.923,28.599h60.52c8.987-12.502 28.538-34.354 57.036-37.324 1.504-0.157 2.64-1.417 2.64-2.93v-32.4c0-1.624-1.321-2.945-2.945-2.945h-129.764c-0.089,0-0.178,0.004-0.267,0.012-12.132,1.103-35.079,9.907-35.079,35.333 0,1.396 0.994,2.611 2.362,2.887z"/>
    </g>
    <g>
      <path d="m170.468,89.345h-67.991l-46.759,62.345c-1.526,2.036-2.203,4.584-1.888,7.109l3.039,24.31h159.207l3.039-24.31c0.315-2.525-0.361-5.073-1.888-7.109l-46.759-62.345z"/>
    </g>
    <g>
      <path d="M70.03,288.4c0.615,4.914,4.791,8.6,9.742,8.6h113.4c4.951,0,9.128-3.687,9.742-8.6l11.443-91.545H58.587L70.03,288.4z"/>
    </g>
  </g>
</svg>
