<?xml version="1.0" encoding="utf-8"?>
<!-- Generator: Adobe Illustrator 24.1.2, SVG Export Plug-In . SVG Version: 6.00 Build 0)  -->
<svg version="1.1" id="Layer_1" xmlns="http://www.w3.org/2000/svg" xmlns:xlink="http://www.w3.org/1999/xlink" x="0px" y="0px"
	 viewBox="0 0 64 64" style="enable-background:new 0 0 64 64;" xml:space="preserve">
<style type="text/css">
	.st0{fill:#bd373f;}
</style>
<g>
	<path class="st0" d="M38.5,0.1h-13c-1,0-1.8,0.8-1.8,1.8v1.5c0,1,0.8,1.9,1.8,1.9h0.6v1.1c0,1.5,1,1.7,1.5,1.6c0.1,0,0.2,0,0.3,0
		l0,0l0,0c1.7-0.2,4.6-0.5,7.9,0l0,0c0,0,2.1,0.4,2.1-1.5V5.3h0.6c1,0,1.8-0.8,1.8-1.9V1.9C40.4,0.9,39.5,0.1,38.5,0.1z"/>
</g>
<path class="st0" d="M32,10.3c-14.8,0-26.8,12-26.8,26.8s12,26.8,26.8,26.8s26.8-12,26.8-26.8S46.8,10.3,32,10.3z M33.7,37.1
	c-1.6,0-1.7-1.1-1.7-1.4V17.2c0-0.6,0.4-1.9,2.2-1.5h0.1c0.1,0,0.2,0,0.3,0C40.1,16.4,52.1,20,53.5,36c0,0.4-0.3,1.1-1.4,1.1
	C42.5,37.1,36.5,37.1,33.7,37.1z"/>
</svg>
