<?xml version="1.0" encoding="utf-8"?>
<!-- Generator: Adobe Illustrator 24.1.2, SVG Export Plug-In . SVG Version: 6.00 Build 0)  -->
<svg version="1.1" id="Layer_1" xmlns="http://www.w3.org/2000/svg" xmlns:xlink="http://www.w3.org/1999/xlink" x="0px" y="0px"
	 viewBox="0 0 100 68" style="enable-background:new 0 0 100 68;" xml:space="preserve" fill="#bd373f">
<path d="M46.5,18h-43C1.6,18,0,16.4,0,14.5v0C0,12.6,1.6,11,3.5,11h43c1.9,0,3.5,1.6,3.5,3.5v0C50,16.4,48.4,18,46.5,18z"/>
<path d="M66.5,38h-63C1.6,38,0,36.4,0,34.5v0C0,32.6,1.6,31,3.5,31h63c1.9,0,3.5,1.6,3.5,3.5v0C70,36.4,68.4,38,66.5,38z"/>
<path d="M86.5,58h-83C1.6,58,0,56.4,0,54.5v0C0,52.6,1.6,51,3.5,51h83c1.9,0,3.5,1.6,3.5,3.5v0C90,56.4,88.4,58,86.5,58z"/>
</svg>
