<?xml version="1.0" encoding="utf-8"?>
<!-- Generator: Adobe Illustrator 24.1.2, SVG Export Plug-In . SVG Version: 6.00 Build 0)  -->
<svg version="1.1" id="Layer_1" xmlns="http://www.w3.org/2000/svg" xmlns:xlink="http://www.w3.org/1999/xlink" x="0px" y="0px"
	 viewBox="0 0 24 24" style="enable-background:new 0 0 24 24;" xml:space="preserve" fill="#bd373f">
<path d="M24,11c0-1.4-1.1-2.5-2.5-2.5h-6.3c-0.1,0-0.2-0.1-0.2-0.3c0,0,0-0.1,0-0.1c0.6-1.4,0.7-2.9,0.5-4.4
	c-0.6-2.1-1.8-2.7-2.8-2.6c-1,0.2-1.7,1-1.7,2C11,6,8.9,9,7,10.3c-0.1,0.1-0.2,0.2-0.2,0.4v10.1c0,0.2,0.2,0.4,0.4,0.5
	c0.4,0.1,0.7,0.1,1,0.2c1.3,0.3,2.7,0.5,4.1,0.5h6.5c2,0,2.3-1.1,2.3-1.8c0-0.3-0.1-0.7-0.2-1c1.1-0.6,1.5-1.9,1-3
	c0.8-0.4,1.2-1.2,1.2-2c0-0.4-0.1-0.7-0.3-1.1C23.5,12.8,24,11.9,24,11z"/>
<path d="M5.3,10.8c0-0.6-0.4-1-1-1H1c-0.6,0-1,0.4-1,1v11c0,0.6,0.4,1,1,1h3.3c0.6,0,1-0.4,1-1V10.8z M3.8,20c0,0.4-0.3,0.8-0.8,0.8
	S2.3,20.4,2.3,20s0.3-0.8,0.8-0.8S3.8,19.6,3.8,20z"/>
</svg>
