<?xml version="1.0" encoding="utf-8"?>
<!-- Generator: Adobe Illustrator 24.1.2, SVG Export Plug-In . SVG Version: 6.00 Build 0)  -->
<svg version="1.1" id="Capa_1" xmlns="http://www.w3.org/2000/svg" xmlns:xlink="http://www.w3.org/1999/xlink" x="0px" y="0px"
	 viewBox="0 0 792 792" style="enable-background:new 0 0 792 792;" xml:space="preserve">
<path d="M531-28H261c-64.4,0-117,51-117,113.5v528.9c0,62.4,52.6,113.5,117,113.5h270c64.3,0,117-51.1,117-113.5V85.5
	C648,23,595.3-28,531-28z M307,42.1c0-6.1,3.5-10.9,7.9-10.9h162.2c4.3,0,7.9,4.9,7.9,10.9V45c0,6.1-3.6,10.9-7.9,10.9H314.9
	c-4.3,0-7.9-4.9-7.9-10.9V42.1z M396,683.3c-27.4,0-49.7-18.4-49.7-41.2c0-22.7,22.2-41.2,49.7-41.2c27.4,0,49.7,18.4,49.7,41.2
	S423.4,683.3,396,683.3z M545,527.8c0,13.9-11.2,25.1-25.1,25.1H272.1c-13.8,0-25.1-11.3-25.1-25.1V180.2
	c0-13.9,11.2-25.1,25.1-25.1H520c13.8,0,25.1,11.3,25.1,25.1L545,527.8L545,527.8z"/>
</svg>
