<?xml version="1.0" encoding="utf-8"?>
<!-- Generator: Adobe Illustrator 24.1.2, SVG Export Plug-In . SVG Version: 6.00 Build 0)  -->
<svg version="1.1" id="Layer_1" xmlns="http://www.w3.org/2000/svg" xmlns:xlink="http://www.w3.org/1999/xlink" x="0px" y="0px"
	 viewBox="0 0 48 48" style="enable-background:new 0 0 48 48;" xml:space="preserve" fill="#bd373f">
<style type="text/css">
	.st0{fill-rule:evenodd;clip-rule:evenodd;}
</style>
<desc>Created with Sketch.</desc>
<g id="Icons">
	<g id="Black" transform="translate(-700.000000, -360.000000)">
		<path id="Whatsapp" class="st0" d="M724,360c-13.2,0-24,10.8-24,24c0,5.2,1.7,10.1,4.6,14.1l-3,8.9l9.2-2.9c3.8,2.5,8.3,4,13.2,4
			c13.2,0,24-10.8,24-24C748,370.8,737.2,360,724,360L724,360L724,360z M717.3,372.2c-0.5-1.1-0.8-1.2-1.5-1.2c-0.2,0-0.5,0-0.8,0
			c-0.9,0-1.9,0.3-2.5,0.9c-0.7,0.7-2.5,2.4-2.5,5.8s2.5,6.8,2.8,7.2c0.4,0.5,4.9,7.6,11.9,10.6c5.5,2.3,7.2,2.1,8.4,1.8
			c1.8-0.4,4.1-1.8,4.7-3.4c0.6-1.6,0.6-3,0.4-3.3c-0.2-0.3-0.6-0.5-1.3-0.8c-0.7-0.4-4.1-2-4.8-2.3c-0.6-0.2-1.2-0.2-1.7,0.5
			c-0.7,0.9-1.3,1.9-1.9,2.5c-0.4,0.5-1.1,0.5-1.7,0.3c-0.8-0.3-2.9-1.1-5.6-3.5c-2.1-1.8-3.5-4.1-3.9-4.8c-0.4-0.7,0-1.1,0.3-1.5
			c0.4-0.4,0.7-0.7,1-1.2c0.4-0.4,0.6-0.6,0.8-1.1c0.2-0.5,0.1-0.9-0.1-1.3C719.3,377,717.9,373.6,717.3,372.2z"/>
	</g>
</g>
</svg>
